<svg xmlns="http://www.w3.org/2000/svg" viewBox="0 0 100 125">
    <path d="M42 16l-.938 7.469A28 28 0 0 0 31.5 29l-6.938-2.938-8 13.875 5.97 4.532A28.256 28.256 0 0 0 22 50c0 1.89.175 3.747.531 5.531l-5.969 4.532 8 13.875L31.5 71a28 28 0 0 0 9.563 5.531L42 84h16l.938-7.469A28 28 0 0 0 68.5 71l6.938 2.938 8-13.875-5.97-4.532C77.826 53.747 78 51.89 78 50c0-1.89-.175-3.747-.531-5.531l5.969-4.532-8-13.875L68.5 29a28 28 0 0 0-9.563-5.531L58 16H42zm8 18c8.837 0 16 7.163 16 16s-7.163 16-16 16c-8.836 0-16-7.163-16-16s7.163-16 16-16z" overflow="visible"/>
</svg>
